<?xml version="1.0" encoding="UTF-8"?>
<svg id="Layer_1" data-name="Layer 1" xmlns="http://www.w3.org/2000/svg" viewBox="0 0 1162.6 400.3">
  <defs>
    <style>
      .cls-1 {
        fill: #fa4206;
      }

      .cls-2 {
        fill: #fefefe;
      }

      .cls-3 {
        fill: #313541;
      }
    </style>
  </defs>
  <path class="cls-2" d="M467.85,222.56c2.17,.72,2.61,2.26,3.43,3.4,19.34,26.88,38.64,53.79,57.99,80.66,1,1.39,1.45,3.52,3.8,3.52,11.9,0,23.8,0,35.86,0-.03-2.04-1.21-2.87-1.96-3.87-21.02-28.13-42.01-56.29-63.18-84.3-2.08-2.76-2.17-4.38-.11-7.17,10.57-14.33,20.92-28.82,31.26-43.32,2.44-3.42,5.38-6.56,7.34-11.02-10.68,0-20.8,.15-30.91-.08-3.37-.08-5.46,.97-7.37,3.74-11.08,16.01-22.31,31.9-33.53,47.81-.58,.82-.71,2.37-2.6,1.92,0-1.62,0-3.27,0-4.91,0-18.99,.1-37.98-.02-56.97-.09-14.7-10.46-26.97-24.36-29.38-3.74-.65-5.63-.38-5.55,4.43,.3,17.15,.1,34.31,.08,51.47-.03,30.98,.03,61.96-.19,92.94-.03,4.05,1.15,5.1,5.01,4.94,6.82-.29,13.67-.33,20.48-.01,3.91,.18,4.68-1.21,4.63-4.83-.21-14.49-.09-28.98-.09-43.47,0-1.75,0-3.49,0-5.47Z"/>
  <path class="cls-2" d="M586.36,157.38c-10.86-.04-21.25,1.83-30.53,7.8-10.9,7.02-15.8,17.34-15.46,30.06,.34,12.75,7.45,20.9,18.76,25.9,4.73,2.09,9.56,3.87,14.53,5.3,8.78,2.54,17.74,4.48,26.29,7.82,3.91,1.53,6.55,3.83,6.56,8.37,0,4.5-2.2,7.53-6.08,9.51-11.87,6.04-28.16,0-32.95-12.49-.98-2.56-2.17-2.77-4.39-2.41-7.72,1.24-15.45,2.43-23.2,3.46-2.6,.35-3.39,1.29-2.75,3.89,2.34,9.48,6.64,17.71,14.49,23.83,17.02,13.27,50.54,14.85,68.67,3.12,12.07-7.81,16.87-19.13,16.03-33.27-.81-13.64-9.11-21.15-20.69-26.19-6.9-3-14.17-4.77-21.39-6.74-6.88-1.88-14-3.14-20.35-6.62-5.03-2.75-5.77-8.74-1.72-12.44,7.42-6.77,29.82-4.56,32.69,7.98,.56,2.46,1.64,2.79,3.82,2.38,7.85-1.48,15.71-2.91,23.59-4.16,2.72-.43,3.19-1.64,2.6-4.06-2-8.23-6.24-15.03-12.89-20.25-10.46-8.21-22.67-10.74-35.61-10.8Z"/>
  <path class="cls-2" d="M638.89,211.58c.08,39.68,20.01,62.68,51.76,65.5,26.33,2.34,47.41-10.68,55.41-33.94,1.17-3.4,.34-4.25-2.86-4.82-7.2-1.3-14.37-2.8-21.48-4.51-2.97-.71-4.36-.2-5.5,2.86-3.41,9.16-10.35,13.42-20.06,13.46-9.78,.04-17.56-3.44-22.16-12.46-5.07-9.93-5.33-20.47-3.48-31.19,.91-5.3,2.67-10.34,6.26-14.49,11.78-13.58,32.89-9.94,40.13,6.91,.81,1.9,.92,4.21,4.25,3.22,7.65-2.27,15.38-4.26,23.11-6.25,2.17-.56,3.07-1.3,2.31-3.75-2.09-6.75-4.95-13.06-9.69-18.39-16.92-19.03-51.85-22.75-73.27-7.73-17.79,12.48-24.47,30.37-24.71,45.56Z"/>
  <path class="cls-2" d="M369.92,109.71c-.36-2.51,2.77-6.89-3.78-6.28-19.9,1.86-39.06,6.23-56.63,16.07-2.88,1.61-4.9,1.62-7.72,.03-17.7-9.98-37.02-14.35-57.08-16.1-3.14-.27-3.99,.64-3.7,3.83,.91,9.93,1.54,19.89,2.18,29.84,.23,3.56,1.84,5.09,5.49,5.45,20.71,2.04,39.61,8.35,54.27,24.05,2,2.14,3.25,1.89,5.27,.03,4.74-4.39,9.39-8.91,15.02-12.24,11.98-7.1,25.14-10.36,38.79-11.79,4.27-.45,5.96-1.9,6.09-6.36,.26-8.81,1.16-17.59,1.81-26.53Z"/>
  <path class="cls-2" d="M247.38,88.68c-3.72-.13-5.17,1.61-4.11,5.32,.79,2.76,3.12,2.08,4.94,2.2,19.28,1.35,37.62,5.95,54.54,15.51,1.97,1.12,3.65,1.14,5.59,.05,16.94-9.55,35.28-14.23,54.58-15.5,3.09-.2,5.42-.63,5.08-4.79-.37-4.51-3.57-2.87-5.5-2.66-18.74,2.1-37.05,5.89-53.65,15.43-2.47,1.42-4.46,1.15-6.88-.22-16.79-9.52-35.25-13.31-54.59-15.36Z"/>
  <path class="cls-2" d="M257.25,76.29c-.33-.02-.7-.14-.99-.04-1.93,.67-5.3-2.17-5.66,2.4-.34,4.44,2.89,3.53,5.37,3.73,16.4,1.33,32.07,5.28,46.62,13.12,1.96,1.06,3.53,1.45,5.54,.33,15.1-8.4,31.45-12.38,48.57-13.43,2.86-.18,4.31-.96,4.18-4.07-.14-3.55-2.67-2.33-4.35-2.22-16.78,1.11-32.83,5.03-47.7,13.03-2.41,1.29-4.03,1.16-6.36-.09-14.12-7.57-29.35-11.34-45.23-12.77Z"/>
  <path class="cls-3" d="M160.98,195.08c13.02,6.45,19.81,17.28,20.59,31.07,1.44,25.45-10.03,49.01-44.02,49.96-22.31,.62-44.65,.09-66.97,.19-2.8,.01-3.68-.76-3.68-3.64,.09-48.97,.08-97.94,0-146.91,0-2.81,.77-3.66,3.61-3.63,20.82,.17,41.66-.33,62.47,.35,29.01,.95,47.4,26.35,40.27,54.5-1.89,7.44-6.1,13.18-12.28,18.12Zm-43.54,14.51c-5.83,0-11.66,.08-17.49-.04-2.3-.05-3.28,.6-3.25,3.07,.1,10.99,.09,21.98,.03,32.97-.01,2.08,.6,2.95,2.82,2.93,11.66-.11,23.33,.27,34.97-.22,11.07-.47,17.92-9.25,17.53-21.32-.34-10.27-7.68-17.16-18.62-17.37-5.33-.1-10.66-.02-15.99-.02Zm-2.26-60.02v-.03c-5.15,0-10.31,.06-15.46-.03-2-.04-3.06,.37-3.03,2.7,.1,9.14,.06,18.28,.05,27.42,0,1.81,.6,2.64,2.63,2.62,10.31-.11,20.63,.28,30.91-.22,9.63-.47,15.01-7.03,14.66-16.6-.34-9.3-6.47-15.52-15.8-15.84-4.65-.16-9.31-.03-13.96-.03Z"/>
  <path class="cls-3" d="M467.85,222.56c0,1.98,0,3.72,0,5.47,0,14.49-.12,28.98,.09,43.47,.05,3.62-.72,5.02-4.63,4.83-6.82-.32-13.67-.28-20.48,.01-3.86,.17-5.04-.88-5.01-4.94,.21-30.98,.16-61.96,.19-92.94,.02-17.16,.22-34.32-.08-51.47-.08-4.81,1.8-5.07,5.55-4.43,13.9,2.41,24.27,14.68,24.36,29.38,.12,18.99,.02,37.98,.02,56.97,0,1.65,0,3.29,0,4.91,1.89,.46,2.02-1.1,2.6-1.92,11.22-15.91,22.46-31.8,33.53-47.81,1.91-2.77,4-3.81,7.37-3.74,10.11,.23,20.23,.08,30.91,.08-1.95,4.46-4.9,7.6-7.34,11.02-10.33,14.5-20.69,28.99-31.26,43.32-2.06,2.79-1.97,4.41,.11,7.17,21.17,28.02,42.16,56.17,63.18,84.3,.75,1,1.93,1.83,1.96,3.87-12.05,0-23.96,0-35.86,0-2.34,0-2.8-2.14-3.8-3.52-19.35-26.87-38.65-53.78-57.99-80.66-.82-1.14-1.26-2.68-3.43-3.4Z"/>
  <path class="cls-3" d="M897.93,270.74c0,8.93,.13,17.4-.03,25.86-.26,13.95-11.32,26.11-24.8,27.78-3.22,.4-4.3-.3-4.29-3.78,.11-52.15,.11-104.29,0-156.44,0-3.31,.91-4.38,4.18-4.24,5.16,.23,10.34,.26,15.49,0,3.91-.19,7.1-.04,6.06,5.85,12.01-8.46,24.82-10.3,38.24-8.23,17.41,2.68,30.25,12.29,37.69,28.03,10.3,21.79,10.16,43.99-1.32,65.34-13.09,24.35-42.24,33.35-67.24,21.47-1.16-.55-2.37-.99-3.97-1.64Zm-3.52-53.42c.33,5.63,.54,11.25,2.27,16.74,3.31,10.52,9.9,16.3,20.15,17.23,12.08,1.1,21.3-3.39,25.83-13.68,5.99-13.57,6.1-27.52-.13-41.07-4.58-9.97-14.33-14.83-25.92-13.86-9.99,.83-16.42,6.59-19.93,17.42-1.83,5.64-1.92,11.43-2.27,17.23Z"/>
  <path class="cls-3" d="M1055.11,225.13c-11.83,0-23.66,.13-35.48-.08-3.54-.06-4.31,.98-3.44,4.25,2.71,10.2,7.99,18.11,19.05,20.1,11.81,2.12,22.35-.04,28.96-11.35,1.27-2.18,2.46-2.04,4.37-1.47,7.33,2.17,14.64,4.46,22.07,6.26,3.78,.92,3.47,2.42,2,5.15-11.01,20.47-28.69,29.63-51.3,29.12-29.14-.65-51.17-18.58-55.71-46.32-4.18-25.55,1.22-48.72,23.89-64.53,35.19-24.53,81.28-3.11,85.55,39.43,.5,4.98,.66,9.94,.62,14.95-.03,3.84-1.51,4.64-5.1,4.57-11.82-.23-23.65-.09-35.48-.09Zm-13.86-21.32c7.14,0,14.29,.03,21.43-.03,1.3-.01,3.48,.63,3-1.93-1.14-6.1-2.73-12.05-8.2-15.93-13.9-9.87-35.59-2.26-40.32,14-.97,3.32,.01,4.02,3.15,3.94,6.98-.17,13.96-.05,20.94-.06Z"/>
  <path class="cls-3" d="M825.81,261.17c-14.3,15.63-31.64,18.65-50.67,14.33-14.21-3.23-23.97-14.94-25.17-28.85-1.48-17.24,5.3-29.88,19.58-36.46,12.74-5.86,26.51-7.46,40.12-9.74,3.61-.6,7.21-1.3,10.85-1.66,2.34-.23,2.8-1.22,2.19-3.23-1.23-4.1-3.09-7.69-7.13-9.78-11.6-6.01-27.73-1.87-34.71,9.23-1.3,2.06-2.49,1.71-4.08,1.21-6.66-2.1-13.25-4.45-19.99-6.27-3.25-.88-2.84-2.26-1.87-4.58,6.48-15.61,18.15-24.77,34.69-27.5,12.48-2.06,24.93-1.46,37.01,2.65,14.76,5.03,23.23,15.59,24.41,30.94,1.77,23.1,.47,46.29,.69,69.44,.04,4.28,1.83,9.83-.78,12.53-2.63,2.73-8.2,.82-12.47,.8-3.92-.02-8.93,1.81-11.51-.81-2.52-2.56-.11-7.61-1.15-12.25Zm-3.06-34.43c1.14-4.11-.65-4.93-4.94-3.9-6.29,1.51-12.75,2.33-19.08,3.71-5.2,1.13-10.31,2.64-14.83,5.65-4.25,2.82-6.53,6.66-5.67,11.83,.89,5.37,4.43,8.29,9.58,9.59,17.59,4.43,34.1-8,34.95-26.87Z"/>
  <path class="cls-3" d="M302.66,217.19c.08,28.27-13.8,50.36-36.95,58.41-37.81,13.15-77.85-8.06-79.86-53.15-1-22.53,5.51-41.98,24.75-55.24,30.69-21.15,85.67-9.86,91.5,42.59,.31,2.81,.43,5.64,.56,7.39Zm-85.83,.63c-.22,8.39,1.36,15.86,5.31,22.93,8.43,15.08,35.68,14.35,43.5,.5,7.03-12.46,7.64-25.36,3.51-38.57-3.85-12.3-13.37-18.47-26.25-17.95-12.62,.5-21.03,7.26-24.47,19.68-1.25,4.53-1.82,9.14-1.6,13.41Z"/>
  <path class="cls-3" d="M425.72,218.24c-.82,25.71-10.22,46.16-34.6,56.33-35.1,14.63-79.43-3.11-82.21-51.49-1.17-20.29,3.84-38.6,19.88-52.12,18.41-15.51,39.76-17.55,61.52-9.17,21.17,8.15,31.93,25.18,34.73,47.4,.4,3.13,.48,6.31,.68,9.05Zm-85.94,.26c-.13,5.19,.52,10.28,2.12,15.23,3.46,10.69,11.37,17.27,21.53,17.93,13.93,.91,22.31-3.42,27.43-14.4,4.38-9.4,4.63-19.35,2.84-29.3-2.71-15.08-12.26-23.17-26.68-23.18-14.36-.01-23.14,7.65-26.32,22.82-.76,3.62-.84,7.25-.93,10.9Z"/>
  <path class="cls-3" d="M586.36,157.38c12.95,.06,25.16,2.59,35.61,10.8,6.65,5.22,10.89,12.02,12.89,20.25,.59,2.42,.12,3.63-2.6,4.06-7.89,1.25-15.74,2.68-23.59,4.16-2.18,.41-3.25,.08-3.82-2.38-2.87-12.54-25.27-14.75-32.69-7.98-4.05,3.69-3.31,9.68,1.72,12.44,6.35,3.48,13.46,4.74,20.35,6.62,7.22,1.97,14.49,3.74,21.39,6.74,11.58,5.04,19.88,12.55,20.69,26.19,.84,14.14-3.96,25.46-16.03,33.27-18.14,11.73-51.65,10.15-68.67-3.12-7.85-6.12-12.15-14.35-14.49-23.83-.64-2.6,.15-3.55,2.75-3.89,7.75-1.03,15.48-2.23,23.2-3.46,2.22-.36,3.41-.15,4.39,2.41,4.8,12.49,21.08,18.53,32.95,12.49,3.89-1.98,6.09-5.01,6.08-9.51,0-4.54-2.65-6.84-6.56-8.37-8.55-3.34-17.51-5.28-26.29-7.82-4.97-1.43-9.8-3.21-14.53-5.3-11.3-4.99-18.41-13.14-18.76-25.9-.34-12.72,4.56-23.04,15.46-30.06,9.28-5.98,19.67-7.84,30.53-7.8Z"/>
  <path class="cls-3" d="M638.89,211.58c.24-15.19,6.92-33.08,24.71-45.56,21.42-15.03,56.35-11.3,73.27,7.73,4.74,5.33,7.6,11.64,9.69,18.39,.76,2.45-.14,3.19-2.31,3.75-7.73,1.99-15.46,3.98-23.11,6.25-3.33,.99-3.43-1.32-4.25-3.22-7.24-16.84-28.35-20.49-40.13-6.91-3.59,4.14-5.35,9.18-6.26,14.49-1.84,10.71-1.58,21.25,3.48,31.19,4.6,9.02,12.39,12.49,22.16,12.46,9.71-.04,16.66-4.3,20.06-13.46,1.14-3.06,2.53-3.57,5.5-2.86,7.11,1.7,14.29,3.21,21.48,4.51,3.19,.58,4.03,1.42,2.86,4.82-8,23.26-29.07,36.28-55.41,33.94-31.75-2.82-51.67-25.82-51.76-65.5Z"/>
  <path class="cls-1" d="M369.92,109.71c-.65,8.93-1.54,17.72-1.81,26.53-.13,4.45-1.82,5.91-6.09,6.36-13.65,1.43-26.81,4.7-38.79,11.79-5.63,3.34-10.28,7.86-15.02,12.24-2.02,1.87-3.27,2.12-5.27-.03-14.65-15.7-33.56-22.01-54.27-24.05-3.65-.36-5.26-1.89-5.49-5.45-.64-9.95-1.27-19.91-2.18-29.84-.29-3.19,.55-4.1,3.7-3.83,20.06,1.75,39.38,6.12,57.08,16.1,2.82,1.59,4.83,1.58,7.72-.03,17.57-9.84,36.74-14.21,56.63-16.07,6.56-.61,3.42,3.77,3.78,6.28Z"/>
  <path class="cls-1" d="M247.38,88.68c19.34,2.05,37.79,5.84,54.59,15.36,2.42,1.37,4.41,1.64,6.88,.22,16.6-9.54,34.91-13.33,53.65-15.43,1.93-.22,5.14-1.85,5.5,2.66,.34,4.17-1.99,4.59-5.08,4.79-19.3,1.26-37.64,5.95-54.58,15.5-1.94,1.09-3.62,1.07-5.59-.05-16.92-9.57-35.27-14.16-54.54-15.51-1.82-.13-4.15,.56-4.94-2.2-1.06-3.71,.39-5.45,4.11-5.32Z"/>
  <path class="cls-1" d="M257.25,76.29c15.88,1.43,31.11,5.2,45.23,12.77,2.33,1.25,3.95,1.38,6.36,.09,14.87-8,30.93-11.92,47.7-13.03,1.67-.11,4.2-1.33,4.35,2.22,.12,3.11-1.32,3.89-4.18,4.07-17.12,1.06-33.47,5.03-48.57,13.43-2.01,1.12-3.58,.72-5.54-.33-14.55-7.84-30.22-11.79-46.62-13.12-2.48-.2-5.71,.71-5.37-3.73,.35-4.58,3.73-1.73,5.66-2.4,.29-.1,.66,.02,.99,.04Z"/>
</svg>